# xmcd
#
# Track frame offsets:
#	150
#	18405
#	39110
#	58760
#	75445
#	93745
#	112030
#	132695
#	152430
#	169180
#
# Disc length: 2499
#
# Revision: 1
# Processed by: cddbd v1.5.2PL0 Copyright (c) Steve Scherf et al.
# Submitted via: kJams Pro (development) 1.0patch49.13
#
DISCID=7a09c10a
DTITLE=Various Artist - Priddis ProSound 1371G
DYEAR=2000
DGENRE=Country
TTITLE0=Trisha Yearwood - Real Live Woman
TTITLE1=Reba McIntire - I'll Be
TTITLE2=Lee Ann Womack and Sons of the Desert - I Hope You Dance
TTITLE3=Jennifer Day - The Fun Of Your Love
TTITLE4=SheDaisy - I Will... But
TTITLE5=Trisha Yearwood - Real Live Woman (Vocal)
TTITLE6=Reba McIntire - I'll Be (Vocal)
TTITLE7=Lee Ann Womak - I Hope You Dance (Vocal)
TTITLE8=Jennifer Day - The Fun Of Your Love (Vocal)
TTITLE9=SheDaisy - I Will... But (Vocal)
EXTD=
EXTT0=
EXTT1=
EXTT2=
EXTT3=
EXTT4=
EXTT5=
EXTT6=
EXTT7=
EXTT8=
EXTT9=
PLAYORDER=
